<?xml version="1.0" encoding="UTF-8" standalone="no"?>
<!DOCTYPE svg PUBLIC "-//W3C//DTD SVG 1.1//EN"
 "http://www.w3.org/Graphics/SVG/1.1/DTD/svg11.dtd">
<!-- Generated by graphviz version 2.47.0 (20210316.0004)
 -->
<!-- Title: dbml Pages: 1 -->
<svg width="2197pt" height="3743pt"
 viewBox="0.00 0.00 2197.08 3743.49" xmlns="http://www.w3.org/2000/svg" xmlns:xlink="http://www.w3.org/1999/xlink">
<g id="graph0" class="graph" transform="scale(1 1) rotate(0) translate(4 3739.49)">
<title>dbml</title>
<!-- ApiConfiguration -->
<g id="ApiConfiguration" class="node">
<title>ApiConfiguration</title>
<ellipse fill="none" stroke="black" stroke-width="0" cx="1894.92" cy="-1692.53" rx="293.4" ry="299.63"/>
<polygon fill="#1d71b8" stroke="transparent" points="1689.92,-1842.53 1689.92,-1902.53 2100.92,-1902.53 2100.92,-1842.53 1689.92,-1842.53"/>
<polygon fill="none" stroke="#29235c" points="1689.92,-1842.53 1689.92,-1902.53 2100.92,-1902.53 2100.92,-1842.53 1689.92,-1842.53"/>
<text text-anchor="start" x="1714.93" y="-1863.73" font-family="Helvetica,sans-Serif" font-weight="bold" font-size="32.00" fill="#ffffff"> &#160;&#160;&#160;&#160;&#160;&#160;ApiConfiguration &#160;&#160;&#160;&#160;&#160;&#160;</text>
<polygon fill="#e7e2dd" stroke="transparent" points="1689.92,-1782.53 1689.92,-1842.53 2100.92,-1842.53 2100.92,-1782.53 1689.92,-1782.53"/>
<polygon fill="none" stroke="#29235c" points="1689.92,-1782.53 1689.92,-1842.53 2100.92,-1842.53 2100.92,-1782.53 1689.92,-1782.53"/>
<text text-anchor="start" x="1700.92" y="-1803.73" font-family="Helvetica,sans-Serif" font-weight="bold" font-size="32.00" fill="#29235c">id</text>
<text text-anchor="start" x="1725.81" y="-1803.73" font-family="Helvetica,sans-Serif" font-size="32.00" fill="#29235c"> &#160;&#160;&#160;</text>
<text text-anchor="start" x="1947.7" y="-1803.73" font-family="Helvetica,sans-Serif" font-style="italic" font-size="32.00" fill="#29235c">INTEGER</text>
<polygon fill="#e7e2dd" stroke="transparent" points="1689.92,-1722.53 1689.92,-1782.53 2100.92,-1782.53 2100.92,-1722.53 1689.92,-1722.53"/>
<polygon fill="none" stroke="#29235c" points="1689.92,-1722.53 1689.92,-1782.53 2100.92,-1782.53 2100.92,-1722.53 1689.92,-1722.53"/>
<text text-anchor="start" x="1700.92" y="-1742.73" font-family="Helvetica,sans-Serif" font-size="32.00" fill="#29235c">name &#160;&#160;&#160;</text>
<text text-anchor="start" x="1858.82" y="-1743.73" font-family="Helvetica,sans-Serif" font-style="italic" font-size="32.00" fill="#29235c">VARCHAR(100)</text>
<polygon fill="#e7e2dd" stroke="transparent" points="1689.92,-1662.53 1689.92,-1722.53 2100.92,-1722.53 2100.92,-1662.53 1689.92,-1662.53"/>
<polygon fill="none" stroke="#29235c" points="1689.92,-1662.53 1689.92,-1722.53 2100.92,-1722.53 2100.92,-1662.53 1689.92,-1662.53"/>
<text text-anchor="start" x="1700.79" y="-1682.73" font-family="Helvetica,sans-Serif" font-size="32.00" fill="#29235c">base_url &#160;&#160;&#160;</text>
<text text-anchor="start" x="1858.87" y="-1683.73" font-family="Helvetica,sans-Serif" font-style="italic" font-size="32.00" fill="#29235c">VARCHAR(255)</text>
<polygon fill="#e7e2dd" stroke="transparent" points="1689.92,-1602.53 1689.92,-1662.53 2100.92,-1662.53 2100.92,-1602.53 1689.92,-1602.53"/>
<polygon fill="none" stroke="#29235c" points="1689.92,-1602.53 1689.92,-1662.53 2100.92,-1662.53 2100.92,-1602.53 1689.92,-1602.53"/>
<text text-anchor="start" x="1700.77" y="-1622.73" font-family="Helvetica,sans-Serif" font-size="32.00" fill="#29235c">endpoint &#160;&#160;&#160;</text>
<text text-anchor="start" x="1858.87" y="-1623.73" font-family="Helvetica,sans-Serif" font-style="italic" font-size="32.00" fill="#29235c">VARCHAR(255)</text>
<polygon fill="#e7e2dd" stroke="transparent" points="1689.92,-1542.53 1689.92,-1602.53 2100.92,-1602.53 2100.92,-1542.53 1689.92,-1542.53"/>
<polygon fill="none" stroke="#29235c" points="1689.92,-1542.53 1689.92,-1602.53 2100.92,-1602.53 2100.92,-1542.53 1689.92,-1542.53"/>
<text text-anchor="start" x="1700.92" y="-1562.73" font-family="Helvetica,sans-Serif" font-size="32.00" fill="#29235c">method &#160;&#160;&#160;</text>
<text text-anchor="start" x="1876.61" y="-1563.73" font-family="Helvetica,sans-Serif" font-style="italic" font-size="32.00" fill="#29235c">VARCHAR(10)</text>
<polygon fill="#e7e2dd" stroke="transparent" points="1689.92,-1482.53 1689.92,-1542.53 2100.92,-1542.53 2100.92,-1482.53 1689.92,-1482.53"/>
<polygon fill="none" stroke="#29235c" points="1689.92,-1482.53 1689.92,-1542.53 2100.92,-1542.53 2100.92,-1482.53 1689.92,-1482.53"/>
<text text-anchor="start" x="1700.92" y="-1502.73" font-family="Helvetica,sans-Serif" font-size="32.00" fill="#29235c">headers &#160;&#160;&#160;</text>
<text text-anchor="start" x="2008.14" y="-1503.73" font-family="Helvetica,sans-Serif" font-style="italic" font-size="32.00" fill="#29235c">TEXT</text>
<polygon fill="none" stroke="#29235c" stroke-width="2" points="1688.42,-1481.53 1688.42,-1903.53 2101.42,-1903.53 2101.42,-1481.53 1688.42,-1481.53"/>
</g>
<!-- ApiErrorLog -->
<g id="ApiErrorLog" class="node">
<title>ApiErrorLog</title>
<ellipse fill="none" stroke="black" stroke-width="0" cx="1178.68" cy="-3520.53" rx="261.76" ry="214.92"/>
<polygon fill="#1d71b8" stroke="transparent" points="995.68,-3610.53 995.68,-3670.53 1361.68,-3670.53 1361.68,-3610.53 995.68,-3610.53"/>
<polygon fill="none" stroke="#29235c" points="995.68,-3610.53 995.68,-3670.53 1361.68,-3670.53 1361.68,-3610.53 995.68,-3610.53"/>
<text text-anchor="start" x="1031.09" y="-3631.73" font-family="Helvetica,sans-Serif" font-weight="bold" font-size="32.00" fill="#ffffff"> &#160;&#160;&#160;&#160;&#160;&#160;ApiErrorLog &#160;&#160;&#160;&#160;&#160;&#160;</text>
<polygon fill="#e7e2dd" stroke="transparent" points="995.68,-3550.53 995.68,-3610.53 1361.68,-3610.53 1361.68,-3550.53 995.68,-3550.53"/>
<polygon fill="none" stroke="#29235c" points="995.68,-3550.53 995.68,-3610.53 1361.68,-3610.53 1361.68,-3550.53 995.68,-3550.53"/>
<text text-anchor="start" x="1006.68" y="-3571.73" font-family="Helvetica,sans-Serif" font-weight="bold" font-size="32.00" fill="#29235c">id</text>
<text text-anchor="start" x="1031.57" y="-3571.73" font-family="Helvetica,sans-Serif" font-size="32.00" fill="#29235c"> &#160;&#160;&#160;</text>
<text text-anchor="start" x="1208.47" y="-3571.73" font-family="Helvetica,sans-Serif" font-style="italic" font-size="32.00" fill="#29235c">INTEGER</text>
<polygon fill="#e7e2dd" stroke="transparent" points="995.68,-3490.53 995.68,-3550.53 1361.68,-3550.53 1361.68,-3490.53 995.68,-3490.53"/>
<polygon fill="none" stroke="#29235c" points="995.68,-3490.53 995.68,-3550.53 1361.68,-3550.53 1361.68,-3490.53 995.68,-3490.53"/>
<text text-anchor="start" x="1006.62" y="-3510.73" font-family="Helvetica,sans-Serif" font-size="32.00" fill="#29235c">timestamp &#160;&#160;&#160;</text>
<text text-anchor="start" x="1189.3" y="-3511.73" font-family="Helvetica,sans-Serif" font-style="italic" font-size="32.00" fill="#29235c">DATETIME</text>
<polygon fill="#e7e2dd" stroke="transparent" points="995.68,-3430.53 995.68,-3490.53 1361.68,-3490.53 1361.68,-3430.53 995.68,-3430.53"/>
<polygon fill="none" stroke="#29235c" points="995.68,-3430.53 995.68,-3490.53 1361.68,-3490.53 1361.68,-3430.53 995.68,-3430.53"/>
<text text-anchor="start" x="1006.68" y="-3450.73" font-family="Helvetica,sans-Serif" font-size="32.00" fill="#29235c">config_id &#160;&#160;&#160;</text>
<text text-anchor="start" x="1208.47" y="-3451.73" font-family="Helvetica,sans-Serif" font-style="italic" font-size="32.00" fill="#29235c">INTEGER</text>
<polygon fill="#e7e2dd" stroke="transparent" points="995.68,-3370.53 995.68,-3430.53 1361.68,-3430.53 1361.68,-3370.53 995.68,-3370.53"/>
<polygon fill="none" stroke="#29235c" points="995.68,-3370.53 995.68,-3430.53 1361.68,-3430.53 1361.68,-3370.53 995.68,-3370.53"/>
<text text-anchor="start" x="1006.68" y="-3390.73" font-family="Helvetica,sans-Serif" font-size="32.00" fill="#29235c">error_message &#160;&#160;&#160;</text>
<text text-anchor="start" x="1268.91" y="-3391.73" font-family="Helvetica,sans-Serif" font-style="italic" font-size="32.00" fill="#29235c">TEXT</text>
<polygon fill="none" stroke="#29235c" stroke-width="2" points="994.68,-3369.53 994.68,-3671.53 1362.68,-3671.53 1362.68,-3369.53 994.68,-3369.53"/>
</g>
<!-- ApiErrorLog&#45;&gt;ApiConfiguration -->
<!-- ApiErrorLog&#45;&gt;ApiConfiguration -->
<g id="edge2" class="edge">
<title>ApiErrorLog:e&#45;&gt;ApiConfiguration:w</title>
<path fill="none" stroke="#29235c" stroke-width="3" d="M1362.68,-3460.53C1478.35,-3460.53 1510.71,-3398.8 1564.76,-3296.53 1640.43,-3153.39 1528.46,-1869.46 1678.65,-1814.36"/>
<polygon fill="#29235c" stroke="#29235c" stroke-width="3" points="1679.69,-1817.73 1688.92,-1812.53 1678.46,-1810.84 1679.69,-1817.73"/>
<text text-anchor="middle" x="1682.7" y="-1822.13" font-family="Helvetica,sans-Serif" font-size="32.00" fill="#29235c">*</text>
<text text-anchor="middle" x="1353.79" y="-3470.13" font-family="Helvetica,sans-Serif" font-size="32.00" fill="#29235c">1</text>
</g>
<!-- ApiLog -->
<g id="ApiLog" class="node">
<title>ApiLog</title>
<ellipse fill="none" stroke="black" stroke-width="0" cx="1178.68" cy="-2987.53" rx="261.76" ry="299.63"/>
<polygon fill="#1d71b8" stroke="transparent" points="995.68,-3137.53 995.68,-3197.53 1361.68,-3197.53 1361.68,-3137.53 995.68,-3137.53"/>
<polygon fill="none" stroke="#29235c" points="995.68,-3137.53 995.68,-3197.53 1361.68,-3197.53 1361.68,-3137.53 995.68,-3137.53"/>
<text text-anchor="start" x="1066.64" y="-3158.73" font-family="Helvetica,sans-Serif" font-weight="bold" font-size="32.00" fill="#ffffff"> &#160;&#160;&#160;&#160;&#160;&#160;ApiLog &#160;&#160;&#160;&#160;&#160;&#160;</text>
<polygon fill="#e7e2dd" stroke="transparent" points="995.68,-3077.53 995.68,-3137.53 1361.68,-3137.53 1361.68,-3077.53 995.68,-3077.53"/>
<polygon fill="none" stroke="#29235c" points="995.68,-3077.53 995.68,-3137.53 1361.68,-3137.53 1361.68,-3077.53 995.68,-3077.53"/>
<text text-anchor="start" x="1006.68" y="-3098.73" font-family="Helvetica,sans-Serif" font-weight="bold" font-size="32.00" fill="#29235c">id</text>
<text text-anchor="start" x="1031.57" y="-3098.73" font-family="Helvetica,sans-Serif" font-size="32.00" fill="#29235c"> &#160;&#160;&#160;</text>
<text text-anchor="start" x="1208.47" y="-3098.73" font-family="Helvetica,sans-Serif" font-style="italic" font-size="32.00" fill="#29235c">INTEGER</text>
<polygon fill="#e7e2dd" stroke="transparent" points="995.68,-3017.53 995.68,-3077.53 1361.68,-3077.53 1361.68,-3017.53 995.68,-3017.53"/>
<polygon fill="none" stroke="#29235c" points="995.68,-3017.53 995.68,-3077.53 1361.68,-3077.53 1361.68,-3017.53 995.68,-3017.53"/>
<text text-anchor="start" x="1006.62" y="-3037.73" font-family="Helvetica,sans-Serif" font-size="32.00" fill="#29235c">timestamp &#160;&#160;&#160;</text>
<text text-anchor="start" x="1189.3" y="-3038.73" font-family="Helvetica,sans-Serif" font-style="italic" font-size="32.00" fill="#29235c">DATETIME</text>
<polygon fill="#e7e2dd" stroke="transparent" points="995.68,-2957.53 995.68,-3017.53 1361.68,-3017.53 1361.68,-2957.53 995.68,-2957.53"/>
<polygon fill="none" stroke="#29235c" points="995.68,-2957.53 995.68,-3017.53 1361.68,-3017.53 1361.68,-2957.53 995.68,-2957.53"/>
<text text-anchor="start" x="1006.68" y="-2977.73" font-family="Helvetica,sans-Serif" font-size="32.00" fill="#29235c">config_id &#160;&#160;&#160;</text>
<text text-anchor="start" x="1208.47" y="-2978.73" font-family="Helvetica,sans-Serif" font-style="italic" font-size="32.00" fill="#29235c">INTEGER</text>
<polygon fill="#e7e2dd" stroke="transparent" points="995.68,-2897.53 995.68,-2957.53 1361.68,-2957.53 1361.68,-2897.53 995.68,-2897.53"/>
<polygon fill="none" stroke="#29235c" points="995.68,-2897.53 995.68,-2957.53 1361.68,-2957.53 1361.68,-2897.53 995.68,-2897.53"/>
<text text-anchor="start" x="1006.68" y="-2917.73" font-family="Helvetica,sans-Serif" font-size="32.00" fill="#29235c">request_info &#160;&#160;&#160;</text>
<text text-anchor="start" x="1268.91" y="-2918.73" font-family="Helvetica,sans-Serif" font-style="italic" font-size="32.00" fill="#29235c">TEXT</text>
<polygon fill="#e7e2dd" stroke="transparent" points="995.68,-2837.53 995.68,-2897.53 1361.68,-2897.53 1361.68,-2837.53 995.68,-2837.53"/>
<polygon fill="none" stroke="#29235c" points="995.68,-2837.53 995.68,-2897.53 1361.68,-2897.53 1361.68,-2837.53 995.68,-2837.53"/>
<text text-anchor="start" x="1006.68" y="-2857.73" font-family="Helvetica,sans-Serif" font-size="32.00" fill="#29235c">response_info &#160;&#160;&#160;</text>
<text text-anchor="start" x="1268.91" y="-2858.73" font-family="Helvetica,sans-Serif" font-style="italic" font-size="32.00" fill="#29235c">TEXT</text>
<polygon fill="#e7e2dd" stroke="transparent" points="995.68,-2777.53 995.68,-2837.53 1361.68,-2837.53 1361.68,-2777.53 995.68,-2777.53"/>
<polygon fill="none" stroke="#29235c" points="995.68,-2777.53 995.68,-2837.53 1361.68,-2837.53 1361.68,-2777.53 995.68,-2777.53"/>
<text text-anchor="start" x="1006.68" y="-2797.73" font-family="Helvetica,sans-Serif" font-size="32.00" fill="#29235c">status &#160;&#160;&#160;</text>
<text text-anchor="start" x="1137.38" y="-2798.73" font-family="Helvetica,sans-Serif" font-style="italic" font-size="32.00" fill="#29235c">VARCHAR(50)</text>
<polygon fill="none" stroke="#29235c" stroke-width="2" points="994.68,-2776.53 994.68,-3198.53 1362.68,-3198.53 1362.68,-2776.53 994.68,-2776.53"/>
</g>
<!-- ApiLog&#45;&gt;ApiConfiguration -->
<!-- ApiLog&#45;&gt;ApiConfiguration -->
<g id="edge4" class="edge">
<title>ApiLog:e&#45;&gt;ApiConfiguration:w</title>
<path fill="none" stroke="#29235c" stroke-width="3" d="M1362.68,-2987.53C1526.78,-2987.53 1506.84,-2832.06 1564.76,-2678.53 1632.15,-2499.92 1499.46,-1837.09 1678.71,-1813.2"/>
<polygon fill="#29235c" stroke="#29235c" stroke-width="3" points="1679.17,-1816.67 1688.92,-1812.53 1678.72,-1809.69 1679.17,-1816.67"/>
<text text-anchor="middle" x="1682.7" y="-1783.73" font-family="Helvetica,sans-Serif" font-size="32.00" fill="#29235c">*</text>
<text text-anchor="middle" x="1353.79" y="-2997.13" font-family="Helvetica,sans-Serif" font-size="32.00" fill="#29235c">1</text>
</g>
<!-- ApiParameter -->
<g id="ApiParameter" class="node">
<title>ApiParameter</title>
<ellipse fill="none" stroke="black" stroke-width="0" cx="1178.68" cy="-2454.53" rx="337.08" ry="214.92"/>
<polygon fill="#1d71b8" stroke="transparent" points="942.68,-2544.53 942.68,-2604.53 1415.68,-2604.53 1415.68,-2544.53 942.68,-2544.53"/>
<polygon fill="none" stroke="#29235c" points="942.68,-2544.53 942.68,-2604.53 1415.68,-2604.53 1415.68,-2544.53 942.68,-2544.53"/>
<text text-anchor="start" x="1019.15" y="-2565.73" font-family="Helvetica,sans-Serif" font-weight="bold" font-size="32.00" fill="#ffffff"> &#160;&#160;&#160;&#160;&#160;&#160;ApiParameter &#160;&#160;&#160;&#160;&#160;&#160;</text>
<polygon fill="#e7e2dd" stroke="transparent" points="942.68,-2484.53 942.68,-2544.53 1415.68,-2544.53 1415.68,-2484.53 942.68,-2484.53"/>
<polygon fill="none" stroke="#29235c" points="942.68,-2484.53 942.68,-2544.53 1415.68,-2544.53 1415.68,-2484.53 942.68,-2484.53"/>
<text text-anchor="start" x="953.68" y="-2505.73" font-family="Helvetica,sans-Serif" font-weight="bold" font-size="32.00" fill="#29235c">id</text>
<text text-anchor="start" x="978.57" y="-2505.73" font-family="Helvetica,sans-Serif" font-size="32.00" fill="#29235c"> &#160;&#160;&#160;</text>
<text text-anchor="start" x="1262.47" y="-2505.73" font-family="Helvetica,sans-Serif" font-style="italic" font-size="32.00" fill="#29235c">INTEGER</text>
<polygon fill="#e7e2dd" stroke="transparent" points="942.68,-2424.53 942.68,-2484.53 1415.68,-2484.53 1415.68,-2424.53 942.68,-2424.53"/>
<polygon fill="none" stroke="#29235c" points="942.68,-2424.53 942.68,-2484.53 1415.68,-2484.53 1415.68,-2424.53 942.68,-2424.53"/>
<text text-anchor="start" x="953.68" y="-2444.73" font-family="Helvetica,sans-Serif" font-size="32.00" fill="#29235c">config_id &#160;&#160;&#160;</text>
<text text-anchor="start" x="1262.47" y="-2445.73" font-family="Helvetica,sans-Serif" font-style="italic" font-size="32.00" fill="#29235c">INTEGER</text>
<polygon fill="#e7e2dd" stroke="transparent" points="942.68,-2364.53 942.68,-2424.53 1415.68,-2424.53 1415.68,-2364.53 942.68,-2364.53"/>
<polygon fill="none" stroke="#29235c" points="942.68,-2364.53 942.68,-2424.53 1415.68,-2424.53 1415.68,-2364.53 942.68,-2364.53"/>
<text text-anchor="start" x="953.68" y="-2384.73" font-family="Helvetica,sans-Serif" font-size="32.00" fill="#29235c">param_key &#160;&#160;&#160;</text>
<text text-anchor="start" x="1173.59" y="-2385.73" font-family="Helvetica,sans-Serif" font-style="italic" font-size="32.00" fill="#29235c">VARCHAR(100)</text>
<polygon fill="#e7e2dd" stroke="transparent" points="942.68,-2304.53 942.68,-2364.53 1415.68,-2364.53 1415.68,-2304.53 942.68,-2304.53"/>
<polygon fill="none" stroke="#29235c" points="942.68,-2304.53 942.68,-2364.53 1415.68,-2364.53 1415.68,-2304.53 942.68,-2304.53"/>
<text text-anchor="start" x="953.43" y="-2324.73" font-family="Helvetica,sans-Serif" font-size="32.00" fill="#29235c">param_value &#160;&#160;&#160;</text>
<text text-anchor="start" x="1173.64" y="-2325.73" font-family="Helvetica,sans-Serif" font-style="italic" font-size="32.00" fill="#29235c">VARCHAR(255)</text>
<polygon fill="none" stroke="#29235c" stroke-width="2" points="941.18,-2303.53 941.18,-2605.53 1416.18,-2605.53 1416.18,-2303.53 941.18,-2303.53"/>
</g>
<!-- ApiParameter&#45;&gt;ApiConfiguration -->
<!-- ApiParameter&#45;&gt;ApiConfiguration -->
<g id="edge6" class="edge">
<title>ApiParameter:e&#45;&gt;ApiConfiguration:w</title>
<path fill="none" stroke="#29235c" stroke-width="3" d="M1416.68,-2454.53C1536.03,-2454.53 1514.32,-2338.69 1564.76,-2230.53 1645.2,-2058.07 1500.52,-1821.27 1678.75,-1812.77"/>
<polygon fill="#29235c" stroke="#29235c" stroke-width="3" points="1679.01,-1816.26 1688.92,-1812.53 1678.84,-1809.27 1679.01,-1816.26"/>
<text text-anchor="middle" x="1695.14" y="-1822.13" font-family="Helvetica,sans-Serif" font-size="32.00" fill="#29235c">*</text>
<text text-anchor="middle" x="1407.79" y="-2464.13" font-family="Helvetica,sans-Serif" font-size="32.00" fill="#29235c">1</text>
</g>
<!-- ApiResponse -->
<g id="ApiResponse" class="node">
<title>ApiResponse</title>
<ellipse fill="none" stroke="black" stroke-width="0" cx="1178.68" cy="-2006.53" rx="261.76" ry="214.92"/>
<polygon fill="#1d71b8" stroke="transparent" points="995.68,-2096.53 995.68,-2156.53 1361.68,-2156.53 1361.68,-2096.53 995.68,-2096.53"/>
<polygon fill="none" stroke="#29235c" points="995.68,-2096.53 995.68,-2156.53 1361.68,-2156.53 1361.68,-2096.53 995.68,-2096.53"/>
<text text-anchor="start" x="1021.3" y="-2117.73" font-family="Helvetica,sans-Serif" font-weight="bold" font-size="32.00" fill="#ffffff"> &#160;&#160;&#160;&#160;&#160;&#160;ApiResponse &#160;&#160;&#160;&#160;&#160;&#160;</text>
<polygon fill="#e7e2dd" stroke="transparent" points="995.68,-2036.53 995.68,-2096.53 1361.68,-2096.53 1361.68,-2036.53 995.68,-2036.53"/>
<polygon fill="none" stroke="#29235c" points="995.68,-2036.53 995.68,-2096.53 1361.68,-2096.53 1361.68,-2036.53 995.68,-2036.53"/>
<text text-anchor="start" x="1006.68" y="-2057.73" font-family="Helvetica,sans-Serif" font-weight="bold" font-size="32.00" fill="#29235c">id</text>
<text text-anchor="start" x="1031.57" y="-2057.73" font-family="Helvetica,sans-Serif" font-size="32.00" fill="#29235c"> &#160;&#160;&#160;</text>
<text text-anchor="start" x="1208.47" y="-2057.73" font-family="Helvetica,sans-Serif" font-style="italic" font-size="32.00" fill="#29235c">INTEGER</text>
<polygon fill="#e7e2dd" stroke="transparent" points="995.68,-1976.53 995.68,-2036.53 1361.68,-2036.53 1361.68,-1976.53 995.68,-1976.53"/>
<polygon fill="none" stroke="#29235c" points="995.68,-1976.53 995.68,-2036.53 1361.68,-2036.53 1361.68,-1976.53 995.68,-1976.53"/>
<text text-anchor="start" x="1006.68" y="-1996.73" font-family="Helvetica,sans-Serif" font-size="32.00" fill="#29235c">config_id &#160;&#160;&#160;</text>
<text text-anchor="start" x="1208.47" y="-1997.73" font-family="Helvetica,sans-Serif" font-style="italic" font-size="32.00" fill="#29235c">INTEGER</text>
<polygon fill="#e7e2dd" stroke="transparent" points="995.68,-1916.53 995.68,-1976.53 1361.68,-1976.53 1361.68,-1916.53 995.68,-1916.53"/>
<polygon fill="none" stroke="#29235c" points="995.68,-1916.53 995.68,-1976.53 1361.68,-1976.53 1361.68,-1916.53 995.68,-1916.53"/>
<text text-anchor="start" x="1006.62" y="-1936.73" font-family="Helvetica,sans-Serif" font-size="32.00" fill="#29235c">timestamp &#160;&#160;&#160;</text>
<text text-anchor="start" x="1189.3" y="-1937.73" font-family="Helvetica,sans-Serif" font-style="italic" font-size="32.00" fill="#29235c">DATETIME</text>
<polygon fill="#e7e2dd" stroke="transparent" points="995.68,-1856.53 995.68,-1916.53 1361.68,-1916.53 1361.68,-1856.53 995.68,-1856.53"/>
<polygon fill="none" stroke="#29235c" points="995.68,-1856.53 995.68,-1916.53 1361.68,-1916.53 1361.68,-1856.53 995.68,-1856.53"/>
<text text-anchor="start" x="1006.68" y="-1876.73" font-family="Helvetica,sans-Serif" font-size="32.00" fill="#29235c">raw_response &#160;&#160;&#160;</text>
<text text-anchor="start" x="1268.91" y="-1877.73" font-family="Helvetica,sans-Serif" font-style="italic" font-size="32.00" fill="#29235c">TEXT</text>
<polygon fill="none" stroke="#29235c" stroke-width="2" points="994.68,-1855.53 994.68,-2157.53 1362.68,-2157.53 1362.68,-1855.53 994.68,-1855.53"/>
</g>
<!-- ApiResponse&#45;&gt;ApiConfiguration -->
<!-- ApiResponse&#45;&gt;ApiConfiguration -->
<g id="edge8" class="edge">
<title>ApiResponse:e&#45;&gt;ApiConfiguration:w</title>
<path fill="none" stroke="#29235c" stroke-width="3" d="M1362.68,-2006.53C1527.92,-2006.53 1520.61,-1820.41 1678.77,-1812.78"/>
<polygon fill="#29235c" stroke="#29235c" stroke-width="3" points="1679.01,-1816.27 1688.92,-1812.53 1678.84,-1809.27 1679.01,-1816.27"/>
<text text-anchor="middle" x="1695.14" y="-1783.73" font-family="Helvetica,sans-Serif" font-size="32.00" fill="#29235c">*</text>
<text text-anchor="middle" x="1353.79" y="-2016.13" font-family="Helvetica,sans-Serif" font-size="32.00" fill="#29235c">1</text>
</g>
<!-- ApiResponseCache -->
<g id="ApiResponseCache" class="node">
<title>ApiResponseCache</title>
<ellipse fill="none" stroke="black" stroke-width="0" cx="1178.68" cy="-1558.53" rx="386.16" ry="214.92"/>
<polygon fill="#1d71b8" stroke="transparent" points="907.68,-1648.53 907.68,-1708.53 1449.68,-1708.53 1449.68,-1648.53 907.68,-1648.53"/>
<polygon fill="none" stroke="#29235c" points="907.68,-1648.53 907.68,-1708.53 1449.68,-1708.53 1449.68,-1648.53 907.68,-1648.53"/>
<text text-anchor="start" x="975.06" y="-1669.73" font-family="Helvetica,sans-Serif" font-weight="bold" font-size="32.00" fill="#ffffff"> &#160;&#160;&#160;&#160;&#160;&#160;ApiResponseCache &#160;&#160;&#160;&#160;&#160;&#160;</text>
<polygon fill="#e7e2dd" stroke="transparent" points="907.68,-1588.53 907.68,-1648.53 1449.68,-1648.53 1449.68,-1588.53 907.68,-1588.53"/>
<polygon fill="none" stroke="#29235c" points="907.68,-1588.53 907.68,-1648.53 1449.68,-1648.53 1449.68,-1588.53 907.68,-1588.53"/>
<text text-anchor="start" x="918.68" y="-1609.73" font-family="Helvetica,sans-Serif" font-weight="bold" font-size="32.00" fill="#29235c">id</text>
<text text-anchor="start" x="943.57" y="-1609.73" font-family="Helvetica,sans-Serif" font-size="32.00" fill="#29235c"> &#160;&#160;&#160;</text>
<text text-anchor="start" x="1296.47" y="-1609.73" font-family="Helvetica,sans-Serif" font-style="italic" font-size="32.00" fill="#29235c">INTEGER</text>
<polygon fill="#e7e2dd" stroke="transparent" points="907.68,-1528.53 907.68,-1588.53 1449.68,-1588.53 1449.68,-1528.53 907.68,-1528.53"/>
<polygon fill="none" stroke="#29235c" points="907.68,-1528.53 907.68,-1588.53 1449.68,-1588.53 1449.68,-1528.53 907.68,-1528.53"/>
<text text-anchor="start" x="918.68" y="-1548.73" font-family="Helvetica,sans-Serif" font-size="32.00" fill="#29235c">config_id &#160;&#160;&#160;</text>
<text text-anchor="start" x="1296.47" y="-1549.73" font-family="Helvetica,sans-Serif" font-style="italic" font-size="32.00" fill="#29235c">INTEGER</text>
<polygon fill="#e7e2dd" stroke="transparent" points="907.68,-1468.53 907.68,-1528.53 1449.68,-1528.53 1449.68,-1468.53 907.68,-1468.53"/>
<polygon fill="none" stroke="#29235c" points="907.68,-1468.53 907.68,-1528.53 1449.68,-1528.53 1449.68,-1468.53 907.68,-1468.53"/>
<text text-anchor="start" x="918.23" y="-1488.73" font-family="Helvetica,sans-Serif" font-size="32.00" fill="#29235c">hashed_response &#160;&#160;&#160;</text>
<text text-anchor="start" x="1207.64" y="-1489.73" font-family="Helvetica,sans-Serif" font-style="italic" font-size="32.00" fill="#29235c">VARCHAR(255)</text>
<polygon fill="#e7e2dd" stroke="transparent" points="907.68,-1408.53 907.68,-1468.53 1449.68,-1468.53 1449.68,-1408.53 907.68,-1408.53"/>
<polygon fill="none" stroke="#29235c" points="907.68,-1408.53 907.68,-1468.53 1449.68,-1468.53 1449.68,-1408.53 907.68,-1408.53"/>
<text text-anchor="start" x="918.68" y="-1428.73" font-family="Helvetica,sans-Serif" font-size="32.00" fill="#29235c">cached_data &#160;&#160;&#160;</text>
<text text-anchor="start" x="1356.91" y="-1429.73" font-family="Helvetica,sans-Serif" font-style="italic" font-size="32.00" fill="#29235c">TEXT</text>
<polygon fill="none" stroke="#29235c" stroke-width="2" points="906.68,-1407.53 906.68,-1709.53 1450.68,-1709.53 1450.68,-1407.53 906.68,-1407.53"/>
</g>
<!-- ApiResponseCache&#45;&gt;ApiConfiguration -->
<!-- ApiResponseCache&#45;&gt;ApiConfiguration -->
<g id="edge10" class="edge">
<title>ApiResponseCache:e&#45;&gt;ApiConfiguration:w</title>
<path fill="none" stroke="#29235c" stroke-width="3" d="M1450.68,-1558.53C1601.98,-1558.53 1537.24,-1801.25 1678.83,-1812.16"/>
<polygon fill="#29235c" stroke="#29235c" stroke-width="3" points="1678.8,-1815.66 1688.92,-1812.53 1679.06,-1808.66 1678.8,-1815.66"/>
<text text-anchor="middle" x="1682.7" y="-1822.13" font-family="Helvetica,sans-Serif" font-size="32.00" fill="#29235c">*</text>
<text text-anchor="middle" x="1441.79" y="-1568.13" font-family="Helvetica,sans-Serif" font-size="32.00" fill="#29235c">1</text>
</g>
<!-- ApiUsageStatistic -->
<g id="ApiUsageStatistic" class="node">
<title>ApiUsageStatistic</title>
<ellipse fill="none" stroke="black" stroke-width="0" cx="1178.68" cy="-620.53" rx="321.05" ry="257.27"/>
<polygon fill="#1d71b8" stroke="transparent" points="953.68,-740.53 953.68,-800.53 1403.68,-800.53 1403.68,-740.53 953.68,-740.53"/>
<polygon fill="none" stroke="#29235c" points="953.68,-740.53 953.68,-800.53 1403.68,-800.53 1403.68,-740.53 953.68,-740.53"/>
<text text-anchor="start" x="991.08" y="-761.73" font-family="Helvetica,sans-Serif" font-weight="bold" font-size="32.00" fill="#ffffff"> &#160;&#160;&#160;&#160;&#160;&#160;ApiUsageStatistic &#160;&#160;&#160;&#160;&#160;&#160;</text>
<polygon fill="#e7e2dd" stroke="transparent" points="953.68,-680.53 953.68,-740.53 1403.68,-740.53 1403.68,-680.53 953.68,-680.53"/>
<polygon fill="none" stroke="#29235c" points="953.68,-680.53 953.68,-740.53 1403.68,-740.53 1403.68,-680.53 953.68,-680.53"/>
<text text-anchor="start" x="964.68" y="-701.73" font-family="Helvetica,sans-Serif" font-weight="bold" font-size="32.00" fill="#29235c">id</text>
<text text-anchor="start" x="989.57" y="-701.73" font-family="Helvetica,sans-Serif" font-size="32.00" fill="#29235c"> &#160;&#160;&#160;</text>
<text text-anchor="start" x="1250.47" y="-701.73" font-family="Helvetica,sans-Serif" font-style="italic" font-size="32.00" fill="#29235c">INTEGER</text>
<polygon fill="#e7e2dd" stroke="transparent" points="953.68,-620.53 953.68,-680.53 1403.68,-680.53 1403.68,-620.53 953.68,-620.53"/>
<polygon fill="none" stroke="#29235c" points="953.68,-620.53 953.68,-680.53 1403.68,-680.53 1403.68,-620.53 953.68,-620.53"/>
<text text-anchor="start" x="964.68" y="-640.73" font-family="Helvetica,sans-Serif" font-size="32.00" fill="#29235c">user_id &#160;&#160;&#160;</text>
<text text-anchor="start" x="1250.47" y="-641.73" font-family="Helvetica,sans-Serif" font-style="italic" font-size="32.00" fill="#29235c">INTEGER</text>
<polygon fill="#e7e2dd" stroke="transparent" points="953.68,-560.53 953.68,-620.53 1403.68,-620.53 1403.68,-560.53 953.68,-560.53"/>
<polygon fill="none" stroke="#29235c" points="953.68,-560.53 953.68,-620.53 1403.68,-620.53 1403.68,-560.53 953.68,-560.53"/>
<text text-anchor="start" x="964.68" y="-580.73" font-family="Helvetica,sans-Serif" font-size="32.00" fill="#29235c">config_id &#160;&#160;&#160;</text>
<text text-anchor="start" x="1250.47" y="-581.73" font-family="Helvetica,sans-Serif" font-style="italic" font-size="32.00" fill="#29235c">INTEGER</text>
<polygon fill="#e7e2dd" stroke="transparent" points="953.68,-500.53 953.68,-560.53 1403.68,-560.53 1403.68,-500.53 953.68,-500.53"/>
<polygon fill="none" stroke="#29235c" points="953.68,-500.53 953.68,-560.53 1403.68,-560.53 1403.68,-500.53 953.68,-500.53"/>
<text text-anchor="start" x="964.68" y="-520.73" font-family="Helvetica,sans-Serif" font-size="32.00" fill="#29235c">api_calls_made &#160;&#160;&#160;</text>
<text text-anchor="start" x="1250.47" y="-521.73" font-family="Helvetica,sans-Serif" font-style="italic" font-size="32.00" fill="#29235c">INTEGER</text>
<polygon fill="#e7e2dd" stroke="transparent" points="953.68,-440.53 953.68,-500.53 1403.68,-500.53 1403.68,-440.53 953.68,-440.53"/>
<polygon fill="none" stroke="#29235c" points="953.68,-440.53 953.68,-500.53 1403.68,-500.53 1403.68,-440.53 953.68,-440.53"/>
<text text-anchor="start" x="964.53" y="-460.73" font-family="Helvetica,sans-Serif" font-size="32.00" fill="#29235c">data_transformed &#160;&#160;&#160;</text>
<text text-anchor="start" x="1250.58" y="-461.73" font-family="Helvetica,sans-Serif" font-style="italic" font-size="32.00" fill="#29235c">INTEGER</text>
<polygon fill="none" stroke="#29235c" stroke-width="2" points="952.68,-439.53 952.68,-801.53 1404.68,-801.53 1404.68,-439.53 952.68,-439.53"/>
</g>
<!-- ApiUsageStatistic&#45;&gt;ApiConfiguration -->
<!-- ApiUsageStatistic&#45;&gt;ApiConfiguration -->
<g id="edge12" class="edge">
<title>ApiUsageStatistic:e&#45;&gt;ApiConfiguration:w</title>
<path fill="none" stroke="#29235c" stroke-width="3" d="M1404.68,-590.53C1554.25,-590.53 1518.5,-744.31 1564.76,-886.53 1627.93,-1080.69 1486.15,-1788.49 1678.87,-1811.94"/>
<polygon fill="#29235c" stroke="#29235c" stroke-width="3" points="1678.73,-1815.44 1688.92,-1812.53 1679.15,-1808.45 1678.73,-1815.44"/>
<text text-anchor="middle" x="1682.7" y="-1783.73" font-family="Helvetica,sans-Serif" font-size="32.00" fill="#29235c">*</text>
<text text-anchor="middle" x="1395.79" y="-561.73" font-family="Helvetica,sans-Serif" font-size="32.00" fill="#29235c">1</text>
</g>
<!-- User -->
<g id="User" class="node">
<title>User</title>
<ellipse fill="none" stroke="black" stroke-width="0" cx="1894.92" cy="-366.53" rx="294.31" ry="214.92"/>
<polygon fill="#1d71b8" stroke="transparent" points="1688.92,-456.53 1688.92,-516.53 2100.92,-516.53 2100.92,-456.53 1688.92,-456.53"/>
<polygon fill="none" stroke="#29235c" points="1688.92,-456.53 1688.92,-516.53 2100.92,-516.53 2100.92,-456.53 1688.92,-456.53"/>
<text text-anchor="start" x="1798.9" y="-477.73" font-family="Helvetica,sans-Serif" font-weight="bold" font-size="32.00" fill="#ffffff"> &#160;&#160;&#160;&#160;&#160;&#160;User &#160;&#160;&#160;&#160;&#160;&#160;</text>
<polygon fill="#e7e2dd" stroke="transparent" points="1688.92,-396.53 1688.92,-456.53 2100.92,-456.53 2100.92,-396.53 1688.92,-396.53"/>
<polygon fill="none" stroke="#29235c" points="1688.92,-396.53 1688.92,-456.53 2100.92,-456.53 2100.92,-396.53 1688.92,-396.53"/>
<text text-anchor="start" x="1699.92" y="-417.73" font-family="Helvetica,sans-Serif" font-weight="bold" font-size="32.00" fill="#29235c">id</text>
<text text-anchor="start" x="1724.81" y="-417.73" font-family="Helvetica,sans-Serif" font-size="32.00" fill="#29235c"> &#160;&#160;&#160;</text>
<text text-anchor="start" x="1947.7" y="-417.73" font-family="Helvetica,sans-Serif" font-style="italic" font-size="32.00" fill="#29235c">INTEGER</text>
<polygon fill="#e7e2dd" stroke="transparent" points="1688.92,-336.53 1688.92,-396.53 2100.92,-396.53 2100.92,-336.53 1688.92,-336.53"/>
<polygon fill="none" stroke="#29235c" points="1688.92,-336.53 1688.92,-396.53 2100.92,-396.53 2100.92,-336.53 1688.92,-336.53"/>
<text text-anchor="start" x="1699.51" y="-356.73" font-family="Helvetica,sans-Serif" font-size="32.00" fill="#29235c">username &#160;&#160;&#160;</text>
<text text-anchor="start" x="1876.77" y="-357.73" font-family="Helvetica,sans-Serif" font-style="italic" font-size="32.00" fill="#29235c">VARCHAR(50)</text>
<polygon fill="#e7e2dd" stroke="transparent" points="1688.92,-276.53 1688.92,-336.53 2100.92,-336.53 2100.92,-276.53 1688.92,-276.53"/>
<polygon fill="none" stroke="#29235c" points="1688.92,-276.53 1688.92,-336.53 2100.92,-336.53 2100.92,-276.53 1688.92,-276.53"/>
<text text-anchor="start" x="1699.92" y="-296.73" font-family="Helvetica,sans-Serif" font-size="32.00" fill="#29235c">email &#160;&#160;&#160;</text>
<text text-anchor="start" x="1858.82" y="-297.73" font-family="Helvetica,sans-Serif" font-style="italic" font-size="32.00" fill="#29235c">VARCHAR(100)</text>
<polygon fill="#e7e2dd" stroke="transparent" points="1688.92,-216.53 1688.92,-276.53 2100.92,-276.53 2100.92,-216.53 1688.92,-216.53"/>
<polygon fill="none" stroke="#29235c" points="1688.92,-216.53 1688.92,-276.53 2100.92,-276.53 2100.92,-216.53 1688.92,-216.53"/>
<text text-anchor="start" x="1699.92" y="-236.73" font-family="Helvetica,sans-Serif" font-size="32.00" fill="#29235c">is_active &#160;&#160;&#160;</text>
<text text-anchor="start" x="1935.22" y="-237.73" font-family="Helvetica,sans-Serif" font-style="italic" font-size="32.00" fill="#29235c">BOOLEAN</text>
<polygon fill="none" stroke="#29235c" stroke-width="2" points="1687.92,-215.53 1687.92,-517.53 2101.92,-517.53 2101.92,-215.53 1687.92,-215.53"/>
</g>
<!-- ApiUsageStatistic&#45;&gt;User -->
<!-- ApiUsageStatistic&#45;&gt;User -->
<g id="edge14" class="edge">
<title>ApiUsageStatistic:e&#45;&gt;User:w</title>
<path fill="none" stroke="#29235c" stroke-width="3" d="M1404.68,-650.53C1561.73,-650.53 1528.96,-436.06 1677.85,-426.84"/>
<polygon fill="#29235c" stroke="#29235c" stroke-width="3" points="1678.03,-430.34 1687.92,-426.53 1677.82,-423.34 1678.03,-430.34"/>
<text text-anchor="middle" x="1681.7" y="-397.73" font-family="Helvetica,sans-Serif" font-size="32.00" fill="#29235c">*</text>
<text text-anchor="middle" x="1395.79" y="-621.73" font-family="Helvetica,sans-Serif" font-size="32.00" fill="#29235c">1</text>
</g>
<!-- DataTransformationRule -->
<g id="DataTransformationRule" class="node">
<title>DataTransformationRule</title>
<ellipse fill="none" stroke="black" stroke-width="0" cx="1178.68" cy="-1110.53" rx="352.28" ry="214.92"/>
<polygon fill="#1d71b8" stroke="transparent" points="931.68,-1200.53 931.68,-1260.53 1425.68,-1260.53 1425.68,-1200.53 931.68,-1200.53"/>
<polygon fill="none" stroke="#29235c" points="931.68,-1200.53 931.68,-1260.53 1425.68,-1260.53 1425.68,-1200.53 931.68,-1200.53"/>
<text text-anchor="start" x="942.2" y="-1221.73" font-family="Helvetica,sans-Serif" font-weight="bold" font-size="32.00" fill="#ffffff"> &#160;&#160;&#160;&#160;&#160;&#160;DataTransformationRule &#160;&#160;&#160;&#160;&#160;&#160;</text>
<polygon fill="#e7e2dd" stroke="transparent" points="931.68,-1140.53 931.68,-1200.53 1425.68,-1200.53 1425.68,-1140.53 931.68,-1140.53"/>
<polygon fill="none" stroke="#29235c" points="931.68,-1140.53 931.68,-1200.53 1425.68,-1200.53 1425.68,-1140.53 931.68,-1140.53"/>
<text text-anchor="start" x="942.68" y="-1161.73" font-family="Helvetica,sans-Serif" font-weight="bold" font-size="32.00" fill="#29235c">id</text>
<text text-anchor="start" x="967.57" y="-1161.73" font-family="Helvetica,sans-Serif" font-size="32.00" fill="#29235c"> &#160;&#160;&#160;</text>
<text text-anchor="start" x="1272.47" y="-1161.73" font-family="Helvetica,sans-Serif" font-style="italic" font-size="32.00" fill="#29235c">INTEGER</text>
<polygon fill="#e7e2dd" stroke="transparent" points="931.68,-1080.53 931.68,-1140.53 1425.68,-1140.53 1425.68,-1080.53 931.68,-1080.53"/>
<polygon fill="none" stroke="#29235c" points="931.68,-1080.53 931.68,-1140.53 1425.68,-1140.53 1425.68,-1080.53 931.68,-1080.53"/>
<text text-anchor="start" x="942.68" y="-1100.73" font-family="Helvetica,sans-Serif" font-size="32.00" fill="#29235c">config_id &#160;&#160;&#160;</text>
<text text-anchor="start" x="1272.47" y="-1101.73" font-family="Helvetica,sans-Serif" font-style="italic" font-size="32.00" fill="#29235c">INTEGER</text>
<polygon fill="#e7e2dd" stroke="transparent" points="931.68,-1020.53 931.68,-1080.53 1425.68,-1080.53 1425.68,-1020.53 931.68,-1020.53"/>
<polygon fill="none" stroke="#29235c" points="931.68,-1020.53 931.68,-1080.53 1425.68,-1080.53 1425.68,-1020.53 931.68,-1020.53"/>
<text text-anchor="start" x="942.68" y="-1040.73" font-family="Helvetica,sans-Serif" font-size="32.00" fill="#29235c">rule_description &#160;&#160;&#160;</text>
<text text-anchor="start" x="1332.91" y="-1041.73" font-family="Helvetica,sans-Serif" font-style="italic" font-size="32.00" fill="#29235c">TEXT</text>
<polygon fill="#e7e2dd" stroke="transparent" points="931.68,-960.53 931.68,-1020.53 1425.68,-1020.53 1425.68,-960.53 931.68,-960.53"/>
<polygon fill="none" stroke="#29235c" points="931.68,-960.53 931.68,-1020.53 1425.68,-1020.53 1425.68,-960.53 931.68,-960.53"/>
<text text-anchor="start" x="942.68" y="-980.73" font-family="Helvetica,sans-Serif" font-size="32.00" fill="#29235c">transformation_logic &#160;&#160;&#160;</text>
<text text-anchor="start" x="1332.91" y="-981.73" font-family="Helvetica,sans-Serif" font-style="italic" font-size="32.00" fill="#29235c">TEXT</text>
<polygon fill="none" stroke="#29235c" stroke-width="2" points="930.68,-959.53 930.68,-1261.53 1426.68,-1261.53 1426.68,-959.53 930.68,-959.53"/>
</g>
<!-- DataTransformationRule&#45;&gt;ApiConfiguration -->
<!-- DataTransformationRule&#45;&gt;ApiConfiguration -->
<g id="edge16" class="edge">
<title>DataTransformationRule:e&#45;&gt;ApiConfiguration:w</title>
<path fill="none" stroke="#29235c" stroke-width="3" d="M1426.68,-1110.53C1543.64,-1110.53 1518.87,-1226.96 1564.76,-1334.53 1649.51,-1533.17 1475.21,-1803.66 1678.62,-1812.32"/>
<polygon fill="#29235c" stroke="#29235c" stroke-width="3" points="1678.85,-1815.83 1688.92,-1812.53 1679,-1808.83 1678.85,-1815.83"/>
<text text-anchor="middle" x="1695.14" y="-1822.13" font-family="Helvetica,sans-Serif" font-size="32.00" fill="#29235c">*</text>
<text text-anchor="middle" x="1417.79" y="-1120.13" font-family="Helvetica,sans-Serif" font-size="32.00" fill="#29235c">1</text>
</g>
<!-- ProcessedDatum -->
<g id="ProcessedDatum" class="node">
<title>ProcessedDatum</title>
<ellipse fill="none" stroke="black" stroke-width="0" cx="378.3" cy="-2006.53" rx="378.1" ry="214.92"/>
<polygon fill="#1d71b8" stroke="transparent" points="113.3,-2096.53 113.3,-2156.53 644.3,-2156.53 644.3,-2096.53 113.3,-2096.53"/>
<polygon fill="none" stroke="#29235c" points="113.3,-2096.53 113.3,-2156.53 644.3,-2156.53 644.3,-2096.53 113.3,-2096.53"/>
<text text-anchor="start" x="193.87" y="-2117.73" font-family="Helvetica,sans-Serif" font-weight="bold" font-size="32.00" fill="#ffffff"> &#160;&#160;&#160;&#160;&#160;&#160;ProcessedDatum &#160;&#160;&#160;&#160;&#160;&#160;</text>
<polygon fill="#e7e2dd" stroke="transparent" points="113.3,-2036.53 113.3,-2096.53 644.3,-2096.53 644.3,-2036.53 113.3,-2036.53"/>
<polygon fill="none" stroke="#29235c" points="113.3,-2036.53 113.3,-2096.53 644.3,-2096.53 644.3,-2036.53 113.3,-2036.53"/>
<text text-anchor="start" x="124.3" y="-2057.73" font-family="Helvetica,sans-Serif" font-weight="bold" font-size="32.00" fill="#29235c">id</text>
<text text-anchor="start" x="149.19" y="-2057.73" font-family="Helvetica,sans-Serif" font-size="32.00" fill="#29235c"> &#160;&#160;&#160;</text>
<text text-anchor="start" x="491.08" y="-2057.73" font-family="Helvetica,sans-Serif" font-style="italic" font-size="32.00" fill="#29235c">INTEGER</text>
<polygon fill="#e7e2dd" stroke="transparent" points="113.3,-1976.53 113.3,-2036.53 644.3,-2036.53 644.3,-1976.53 113.3,-1976.53"/>
<polygon fill="none" stroke="#29235c" points="113.3,-1976.53 113.3,-2036.53 644.3,-2036.53 644.3,-1976.53 113.3,-1976.53"/>
<text text-anchor="start" x="124.3" y="-1996.73" font-family="Helvetica,sans-Serif" font-size="32.00" fill="#29235c">response_id &#160;&#160;&#160;</text>
<text text-anchor="start" x="491.08" y="-1997.73" font-family="Helvetica,sans-Serif" font-style="italic" font-size="32.00" fill="#29235c">INTEGER</text>
<polygon fill="#e7e2dd" stroke="transparent" points="113.3,-1916.53 113.3,-1976.53 644.3,-1976.53 644.3,-1916.53 113.3,-1916.53"/>
<polygon fill="none" stroke="#29235c" points="113.3,-1916.53 113.3,-1976.53 644.3,-1976.53 644.3,-1916.53 113.3,-1916.53"/>
<text text-anchor="start" x="124.3" y="-1936.73" font-family="Helvetica,sans-Serif" font-size="32.00" fill="#29235c">transformed_data &#160;&#160;&#160;</text>
<text text-anchor="start" x="551.52" y="-1937.73" font-family="Helvetica,sans-Serif" font-style="italic" font-size="32.00" fill="#29235c">TEXT</text>
<polygon fill="#e7e2dd" stroke="transparent" points="113.3,-1856.53 113.3,-1916.53 644.3,-1916.53 644.3,-1856.53 113.3,-1856.53"/>
<polygon fill="none" stroke="#29235c" points="113.3,-1856.53 113.3,-1916.53 644.3,-1916.53 644.3,-1856.53 113.3,-1856.53"/>
<text text-anchor="start" x="124.04" y="-1876.73" font-family="Helvetica,sans-Serif" font-size="32.00" fill="#29235c">processed_timestamp &#160;&#160;&#160;</text>
<text text-anchor="start" x="471.92" y="-1877.73" font-family="Helvetica,sans-Serif" font-style="italic" font-size="32.00" fill="#29235c">DATETIME</text>
<polygon fill="none" stroke="#29235c" stroke-width="2" points="111.8,-1855.53 111.8,-2157.53 644.8,-2157.53 644.8,-1855.53 111.8,-1855.53"/>
</g>
<!-- ProcessedDatum&#45;&gt;ApiResponse -->
<!-- ProcessedDatum&#45;&gt;ApiResponse -->
<g id="edge18" class="edge">
<title>ProcessedDatum:e&#45;&gt;ApiResponse:w</title>
<path fill="none" stroke="#29235c" stroke-width="3" d="M645.3,-2006.53C799.32,-2006.53 835.53,-2063.87 984.25,-2066.44"/>
<polygon fill="#29235c" stroke="#29235c" stroke-width="3" points="984.65,-2069.95 994.68,-2066.53 984.71,-2062.95 984.65,-2069.95"/>
<text text-anchor="middle" x="988.46" y="-2076.13" font-family="Helvetica,sans-Serif" font-size="32.00" fill="#29235c">*</text>
<text text-anchor="middle" x="636.41" y="-2016.13" font-family="Helvetica,sans-Serif" font-size="32.00" fill="#29235c">1</text>
</g>
<!-- TransformationTemplate -->
<g id="TransformationTemplate" class="node">
<title>TransformationTemplate</title>
<ellipse fill="none" stroke="black" stroke-width="0" cx="378.3" cy="-2411.53" rx="352.28" ry="172.57"/>
<polygon fill="#1d71b8" stroke="transparent" points="131.3,-2471.53 131.3,-2531.53 625.3,-2531.53 625.3,-2471.53 131.3,-2471.53"/>
<polygon fill="none" stroke="#29235c" points="131.3,-2471.53 131.3,-2531.53 625.3,-2531.53 625.3,-2471.53 131.3,-2471.53"/>
<text text-anchor="start" x="141.81" y="-2492.73" font-family="Helvetica,sans-Serif" font-weight="bold" font-size="32.00" fill="#ffffff"> &#160;&#160;&#160;&#160;&#160;&#160;TransformationTemplate &#160;&#160;&#160;&#160;&#160;&#160;</text>
<polygon fill="#e7e2dd" stroke="transparent" points="131.3,-2411.53 131.3,-2471.53 625.3,-2471.53 625.3,-2411.53 131.3,-2411.53"/>
<polygon fill="none" stroke="#29235c" points="131.3,-2411.53 131.3,-2471.53 625.3,-2471.53 625.3,-2411.53 131.3,-2411.53"/>
<text text-anchor="start" x="142.3" y="-2432.73" font-family="Helvetica,sans-Serif" font-weight="bold" font-size="32.00" fill="#29235c">id</text>
<text text-anchor="start" x="167.19" y="-2432.73" font-family="Helvetica,sans-Serif" font-size="32.00" fill="#29235c"> &#160;&#160;&#160;</text>
<text text-anchor="start" x="472.08" y="-2432.73" font-family="Helvetica,sans-Serif" font-style="italic" font-size="32.00" fill="#29235c">INTEGER</text>
<polygon fill="#e7e2dd" stroke="transparent" points="131.3,-2351.53 131.3,-2411.53 625.3,-2411.53 625.3,-2351.53 131.3,-2351.53"/>
<polygon fill="none" stroke="#29235c" points="131.3,-2351.53 131.3,-2411.53 625.3,-2411.53 625.3,-2351.53 131.3,-2351.53"/>
<text text-anchor="start" x="142.3" y="-2371.73" font-family="Helvetica,sans-Serif" font-size="32.00" fill="#29235c">name &#160;&#160;&#160;</text>
<text text-anchor="start" x="383.2" y="-2372.73" font-family="Helvetica,sans-Serif" font-style="italic" font-size="32.00" fill="#29235c">VARCHAR(100)</text>
<polygon fill="#e7e2dd" stroke="transparent" points="131.3,-2291.53 131.3,-2351.53 625.3,-2351.53 625.3,-2291.53 131.3,-2291.53"/>
<polygon fill="none" stroke="#29235c" points="131.3,-2291.53 131.3,-2351.53 625.3,-2351.53 625.3,-2291.53 131.3,-2291.53"/>
<text text-anchor="start" x="142.3" y="-2311.73" font-family="Helvetica,sans-Serif" font-size="32.00" fill="#29235c">template_content &#160;&#160;&#160;</text>
<text text-anchor="start" x="532.52" y="-2312.73" font-family="Helvetica,sans-Serif" font-style="italic" font-size="32.00" fill="#29235c">TEXT</text>
<polygon fill="none" stroke="#29235c" stroke-width="2" points="130.3,-2290.53 130.3,-2532.53 626.3,-2532.53 626.3,-2290.53 130.3,-2290.53"/>
</g>
<!-- UserApiConfiguration -->
<g id="UserApiConfiguration" class="node">
<title>UserApiConfiguration</title>
<ellipse fill="none" stroke="black" stroke-width="0" cx="1178.68" cy="-172.53" rx="321.05" ry="172.57"/>
<polygon fill="#1d71b8" stroke="transparent" points="953.68,-232.53 953.68,-292.53 1403.68,-292.53 1403.68,-232.53 953.68,-232.53"/>
<polygon fill="none" stroke="#29235c" points="953.68,-232.53 953.68,-292.53 1403.68,-292.53 1403.68,-232.53 953.68,-232.53"/>
<text text-anchor="start" x="964.42" y="-253.73" font-family="Helvetica,sans-Serif" font-weight="bold" font-size="32.00" fill="#ffffff"> &#160;&#160;&#160;&#160;&#160;&#160;UserApiConfiguration &#160;&#160;&#160;&#160;&#160;&#160;</text>
<polygon fill="#e7e2dd" stroke="transparent" points="953.68,-172.53 953.68,-232.53 1403.68,-232.53 1403.68,-172.53 953.68,-172.53"/>
<polygon fill="none" stroke="#29235c" points="953.68,-172.53 953.68,-232.53 1403.68,-232.53 1403.68,-172.53 953.68,-172.53"/>
<text text-anchor="start" x="964.68" y="-193.73" font-family="Helvetica,sans-Serif" font-weight="bold" font-size="32.00" fill="#29235c">id</text>
<text text-anchor="start" x="989.57" y="-193.73" font-family="Helvetica,sans-Serif" font-size="32.00" fill="#29235c"> &#160;&#160;&#160;</text>
<text text-anchor="start" x="1250.47" y="-193.73" font-family="Helvetica,sans-Serif" font-style="italic" font-size="32.00" fill="#29235c">INTEGER</text>
<polygon fill="#e7e2dd" stroke="transparent" points="953.68,-112.53 953.68,-172.53 1403.68,-172.53 1403.68,-112.53 953.68,-112.53"/>
<polygon fill="none" stroke="#29235c" points="953.68,-112.53 953.68,-172.53 1403.68,-172.53 1403.68,-112.53 953.68,-112.53"/>
<text text-anchor="start" x="964.68" y="-132.73" font-family="Helvetica,sans-Serif" font-size="32.00" fill="#29235c">user_id &#160;&#160;&#160;</text>
<text text-anchor="start" x="1250.47" y="-133.73" font-family="Helvetica,sans-Serif" font-style="italic" font-size="32.00" fill="#29235c">INTEGER</text>
<polygon fill="#e7e2dd" stroke="transparent" points="953.68,-52.53 953.68,-112.53 1403.68,-112.53 1403.68,-52.53 953.68,-52.53"/>
<polygon fill="none" stroke="#29235c" points="953.68,-52.53 953.68,-112.53 1403.68,-112.53 1403.68,-52.53 953.68,-52.53"/>
<text text-anchor="start" x="964.68" y="-72.73" font-family="Helvetica,sans-Serif" font-size="32.00" fill="#29235c">config_id &#160;&#160;&#160;</text>
<text text-anchor="start" x="1250.47" y="-73.73" font-family="Helvetica,sans-Serif" font-style="italic" font-size="32.00" fill="#29235c">INTEGER</text>
<polygon fill="none" stroke="#29235c" stroke-width="2" points="952.68,-51.53 952.68,-293.53 1404.68,-293.53 1404.68,-51.53 952.68,-51.53"/>
</g>
<!-- UserApiConfiguration&#45;&gt;ApiConfiguration -->
<!-- UserApiConfiguration&#45;&gt;ApiConfiguration -->
<g id="edge20" class="edge">
<title>UserApiConfiguration:e&#45;&gt;ApiConfiguration:w</title>
<path fill="none" stroke="#29235c" stroke-width="3" d="M1404.68,-82.53C1544.96,-82.53 1522.18,-220.88 1564.76,-354.53 1613.06,-506.12 1530.04,-1757.07 1678.78,-1810.75"/>
<polygon fill="#29235c" stroke="#29235c" stroke-width="3" points="1678.47,-1814.25 1688.92,-1812.53 1679.68,-1807.36 1678.47,-1814.25"/>
<text text-anchor="middle" x="1695.14" y="-1783.73" font-family="Helvetica,sans-Serif" font-size="32.00" fill="#29235c">*</text>
<text text-anchor="middle" x="1395.79" y="-53.73" font-family="Helvetica,sans-Serif" font-size="32.00" fill="#29235c">1</text>
</g>
<!-- UserApiConfiguration&#45;&gt;User -->
<!-- UserApiConfiguration&#45;&gt;User -->
<g id="edge22" class="edge">
<title>UserApiConfiguration:e&#45;&gt;User:w</title>
<path fill="none" stroke="#29235c" stroke-width="3" d="M1404.68,-142.53C1579.47,-142.53 1512.42,-415.55 1677.76,-426.21"/>
<polygon fill="#29235c" stroke="#29235c" stroke-width="3" points="1677.82,-429.72 1687.92,-426.53 1678.04,-422.72 1677.82,-429.72"/>
<text text-anchor="middle" x="1681.7" y="-436.13" font-family="Helvetica,sans-Serif" font-size="32.00" fill="#29235c">*</text>
<text text-anchor="middle" x="1395.79" y="-113.73" font-family="Helvetica,sans-Serif" font-size="32.00" fill="#29235c">1</text>
</g>
</g>
</svg>
